<?xml version="1.0" encoding="UTF-8" standalone="no"?>
<!DOCTYPE svg PUBLIC "-//W3C//DTD SVG 1.1//EN" "http://www.w3.org/Graphics/SVG/1.1/DTD/svg11.dtd">
<svg width="100%" height="100%" viewBox="0 0 22 12" version="1.1" xmlns="http://www.w3.org/2000/svg" xmlns:xlink="http://www.w3.org/1999/xlink" xml:space="preserve" xmlns:serif="http://www.serif.com/" style="fill-rule:evenodd;clip-rule:evenodd;stroke-linecap:round;stroke-linejoin:round;stroke-miterlimit:1.5;">
    <g transform="matrix(1,0,0,1,-49,-95)">
        <g id="p5" transform="matrix(1,0,0,1,-39.6994,-52.0759)">
            <g transform="matrix(1.06542,0,0,1.07652,-579.418,122.429)">
                <rect x="628.032" y="23.823" width="18.772" height="9.289" style="fill:rgb(211,212,183);stroke:black;stroke-width:0.92px;"/>
            </g>
            <g transform="matrix(1.95313,0,0,1.95313,-72.8605,-150.775)">
                <path d="M83.231,155.571C84.598,155.571 85.708,156.681 85.708,158.049L85.699,158.131L83.231,158.131L83.231,155.571Z"/>
            </g>
            <g transform="matrix(1.95313,0,0,1.95313,-56.5762,-150.775)">
                <path d="M80.762,158.131L80.754,158.049C80.754,156.681 81.864,155.571 83.231,155.571C84,155.571 84.687,155.923 85.133,156.481L85.133,158.131L80.762,158.131Z"/>
            </g>
        </g>
    </g>
</svg>
