<?xml version="1.0" encoding="UTF-8" standalone="no"?>
<!DOCTYPE svg PUBLIC "-//W3C//DTD SVG 1.1//EN" "http://www.w3.org/Graphics/SVG/1.1/DTD/svg11.dtd">
<svg width="100%" height="100%" viewBox="0 0 20 10" version="1.1" xmlns="http://www.w3.org/2000/svg" xmlns:xlink="http://www.w3.org/1999/xlink" xml:space="preserve" xmlns:serif="http://www.serif.com/" style="fill-rule:evenodd;clip-rule:evenodd;stroke-linejoin:round;stroke-miterlimit:2;">
    <g transform="matrix(1,0,0,1,-78,-50)">
        <g id="s4">
            <g transform="matrix(1.06542,0,0,1.07652,-591.117,24.3536)">
                <path d="M646.804,24.995C645.672,25.744 644.927,27.02 644.927,28.468C644.927,29.916 645.672,31.193 646.804,31.942L646.804,33.113L628.032,33.113L628.032,32.601L628.501,32.648C630.832,32.648 632.725,30.775 632.725,28.468C632.725,26.161 630.832,24.288 628.501,24.288L628.032,24.335L628.032,23.823L646.804,23.823L646.804,24.995Z" style="fill:white;"/>
            </g>
            <g transform="matrix(1,0,0,1,-13,-2.5)">
                <path d="M91,53.05L91.5,53C93.984,53 96,55.016 96,57.5C96,59.984 93.984,62 91.5,62L91,61.95L91,53.05Z" style="fill:rgb(251,10,0);"/>
            </g>
            <g transform="matrix(1,0,0,1,9,-2.5)">
                <path d="M89,53.761L89,61.239C87.794,60.433 87,59.058 87,57.5C87,55.942 87.794,54.567 89,53.761Z" style="fill:rgb(251,10,0);"/>
            </g>
        </g>
    </g>
</svg>
